<svg width="20" height="20" viewBox="0 0 20 20" fill="none" xmlns="http://www.w3.org/2000/svg">
<path d="M18.3333 4.16659V7.49992L9.99999 10.8333L1.66666 7.49992V4.16659C1.66666 3.94557 1.75445 3.73361 1.91073 3.57733C2.06701 3.42105 2.27898 3.33325 2.49999 3.33325H17.5C17.721 3.33325 17.933 3.42105 18.0892 3.57733C18.2455 3.73361 18.3333 3.94557 18.3333 4.16659ZM1.66666 9.29492V15.8333C1.66666 16.0543 1.75445 16.2662 1.91073 16.4225C2.06701 16.5788 2.27898 16.6666 2.49999 16.6666H17.5C17.721 16.6666 17.933 16.5788 18.0892 16.4225C18.2455 16.2662 18.3333 16.0543 18.3333 15.8333V9.29492L9.99999 12.6283L1.66666 9.29492Z" fill="#232121"/>
</svg>
