<svg width="193" height="46" viewBox="0 0 193 46" fill="none" xmlns="http://www.w3.org/2000/svg">
<path d="M52.7585 11.2727H55.0341L57.4375 17.1364H57.5398L59.9432 11.2727H62.2188V20H60.429V14.3196H60.3565L58.098 19.9574H56.8793L54.6207 14.2983H54.5483V20H52.7585V11.2727ZM69.1842 11.2727V20H67.339V11.2727H69.1842ZM82.0026 14.3281H80.1361C80.102 14.0866 80.0324 13.8722 79.9273 13.6847C79.8222 13.4943 79.6872 13.3324 79.5224 13.1989C79.3577 13.0653 79.1673 12.9631 78.9514 12.892C78.7384 12.821 78.5068 12.7855 78.2568 12.7855C77.8051 12.7855 77.4116 12.8977 77.0764 13.1222C76.7412 13.3437 76.4813 13.6676 76.2966 14.0938C76.1119 14.517 76.0196 15.0312 76.0196 15.6364C76.0196 16.2585 76.1119 16.7812 76.2966 17.2045C76.4841 17.6278 76.7455 17.9474 77.0807 18.1634C77.4159 18.3793 77.8037 18.4872 78.244 18.4872C78.4912 18.4872 78.7199 18.4545 78.9301 18.3892C79.1432 18.3239 79.3321 18.2287 79.4969 18.1037C79.6616 17.9759 79.798 17.821 79.906 17.6392C80.0168 17.4574 80.0935 17.25 80.1361 17.017L82.0026 17.0256C81.9543 17.4261 81.8335 17.8125 81.6403 18.1847C81.45 18.554 81.1929 18.8849 80.869 19.1776C80.548 19.4673 80.1645 19.6974 79.7185 19.8679C79.2753 20.0355 78.7739 20.1193 78.2142 20.1193C77.4358 20.1193 76.7398 19.9432 76.1261 19.5909C75.5153 19.2386 75.0324 18.7287 74.6773 18.0611C74.325 17.3935 74.1489 16.5852 74.1489 15.6364C74.1489 14.6847 74.3278 13.875 74.6858 13.2074C75.0438 12.5398 75.5295 12.0312 76.1432 11.6818C76.7568 11.3295 77.4472 11.1534 78.2142 11.1534C78.7199 11.1534 79.1886 11.2244 79.6205 11.3665C80.0551 11.5085 80.4401 11.7159 80.7753 11.9886C81.1105 12.2585 81.3832 12.5895 81.5935 12.9815C81.8065 13.3736 81.9429 13.8224 82.0026 14.3281ZM86.9257 20V11.2727H88.7709V14.8736H92.5166V11.2727H94.3575V20H92.5166V16.3949H88.7709V20H86.9257ZM99.4788 20V11.2727H105.36V12.794H101.324V14.8736H105.057V16.3949H101.324V18.4787H105.377V20H99.4788ZM110.426 20V11.2727H112.272V18.4787H116.013V20H110.426ZM120.835 20V11.2727H122.68V18.4787H126.422V20H120.835ZM141.115 11.2727H142.939V17.358C142.939 17.9205 142.813 18.4091 142.56 18.8239C142.31 19.2386 141.962 19.5582 141.516 19.7827C141.07 20.0071 140.551 20.1193 139.961 20.1193C139.435 20.1193 138.958 20.027 138.529 19.8423C138.103 19.6548 137.764 19.3707 137.514 18.9901C137.264 18.6065 137.141 18.125 137.144 17.5455H138.98C138.986 17.7756 139.033 17.973 139.121 18.1378C139.212 18.2997 139.336 18.4247 139.492 18.5128C139.651 18.598 139.838 18.6406 140.054 18.6406C140.282 18.6406 140.473 18.5923 140.63 18.4957C140.789 18.3963 140.909 18.2514 140.992 18.0611C141.074 17.8707 141.115 17.6364 141.115 17.358V11.2727ZM149.569 20H147.592L150.605 11.2727H152.982L155.991 20H154.014L151.828 13.267H151.759L149.569 20ZM149.445 16.5696H154.116V18.0099H149.445V16.5696ZM166.018 14.0938C165.958 13.8864 165.875 13.7031 165.767 13.544C165.659 13.3821 165.527 13.2457 165.37 13.1349C165.217 13.0213 165.041 12.9347 164.842 12.875C164.646 12.8153 164.429 12.7855 164.19 12.7855C163.744 12.7855 163.352 12.8963 163.014 13.1179C162.679 13.3395 162.417 13.6619 162.23 14.0852C162.042 14.5057 161.949 15.0199 161.949 15.6278C161.949 16.2358 162.041 16.7528 162.225 17.179C162.41 17.6051 162.672 17.9304 163.01 18.1548C163.348 18.3764 163.747 18.4872 164.207 18.4872C164.625 18.4872 164.981 18.4134 165.277 18.2656C165.575 18.1151 165.802 17.9034 165.958 17.6307C166.118 17.358 166.197 17.0355 166.197 16.6634L166.572 16.7188H164.322V15.3295H167.974V16.429C167.974 17.196 167.812 17.8551 167.488 18.4062C167.164 18.9545 166.718 19.3778 166.15 19.6761C165.582 19.9716 164.931 20.1193 164.199 20.1193C163.38 20.1193 162.662 19.9389 162.042 19.5781C161.423 19.2145 160.94 18.6989 160.593 18.0312C160.25 17.3608 160.078 16.5653 160.078 15.6449C160.078 14.9375 160.18 14.3068 160.385 13.7528C160.592 13.196 160.882 12.7244 161.254 12.3381C161.626 11.9517 162.059 11.6577 162.554 11.456C163.048 11.2543 163.583 11.1534 164.16 11.1534C164.654 11.1534 165.115 11.2259 165.541 11.3707C165.967 11.5128 166.345 11.7145 166.674 11.9759C167.007 12.2372 167.278 12.5483 167.488 12.9091C167.699 13.267 167.833 13.6619 167.893 14.0938H166.018ZM172.96 20V11.2727H178.841V12.794H174.805V14.8736H178.538V16.3949H174.805V18.4787H178.858V20H172.96ZM191.608 14.3281H189.742C189.707 14.0866 189.638 13.8722 189.533 13.6847C189.428 13.4943 189.293 13.3324 189.128 13.1989C188.963 13.0653 188.773 12.9631 188.557 12.892C188.344 12.821 188.112 12.7855 187.862 12.7855C187.411 12.7855 187.017 12.8977 186.682 13.1222C186.347 13.3437 186.087 13.6676 185.902 14.0938C185.717 14.517 185.625 15.0312 185.625 15.6364C185.625 16.2585 185.717 16.7812 185.902 17.2045C186.09 17.6278 186.351 17.9474 186.686 18.1634C187.021 18.3793 187.409 18.4872 187.849 18.4872C188.097 18.4872 188.325 18.4545 188.536 18.3892C188.749 18.3239 188.938 18.2287 189.102 18.1037C189.267 17.9759 189.403 17.821 189.511 17.6392C189.622 17.4574 189.699 17.25 189.742 17.017L191.608 17.0256C191.56 17.4261 191.439 17.8125 191.246 18.1847C191.055 18.554 190.798 18.8849 190.475 19.1776C190.153 19.4673 189.77 19.6974 189.324 19.8679C188.881 20.0355 188.379 20.1193 187.82 20.1193C187.041 20.1193 186.345 19.9432 185.732 19.5909C185.121 19.2386 184.638 18.7287 184.283 18.0611C183.93 17.3935 183.754 16.5852 183.754 15.6364C183.754 14.6847 183.933 13.875 184.291 13.2074C184.649 12.5398 185.135 12.0312 185.749 11.6818C186.362 11.3295 187.053 11.1534 187.82 11.1534C188.325 11.1534 188.794 11.2244 189.226 11.3665C189.661 11.5085 190.046 11.7159 190.381 11.9886C190.716 12.2585 190.989 12.5895 191.199 12.9815C191.412 13.3736 191.548 13.8224 191.608 14.3281Z" fill="#232121"/>
<path d="M56.9148 30.5455C56.8745 30.1406 56.6958 29.8187 56.3786 29.5795C56.0613 29.3404 55.6624 29.2209 55.1818 29.2209C54.8433 29.2209 54.545 29.2789 54.2869 29.3949C54.0313 29.5109 53.83 29.6719 53.6832 29.8778C53.5388 30.0814 53.4666 30.3134 53.4666 30.5739C53.4666 30.7656 53.508 30.9337 53.5909 31.0781C53.6738 31.2225 53.785 31.3468 53.9247 31.451C54.0668 31.5528 54.223 31.6404 54.3935 31.7138C54.5663 31.7872 54.7403 31.8487 54.9155 31.8984L55.6825 32.1186C55.9145 32.1825 56.1465 32.2642 56.3786 32.3636C56.6106 32.4631 56.8224 32.5885 57.0142 32.7401C57.2083 32.8892 57.3634 33.0727 57.4794 33.2905C57.5978 33.5059 57.657 33.7652 57.657 34.0682C57.657 34.4564 57.5563 34.8056 57.3551 35.1158C57.1539 35.4259 56.8651 35.6721 56.4886 35.8544C56.1122 36.0343 55.6612 36.1243 55.1357 36.1243C54.6409 36.1243 54.2112 36.0426 53.8466 35.8793C53.482 35.7135 53.1955 35.4851 52.9872 35.1939C52.7789 34.9027 52.6617 34.5653 52.6357 34.1818H53.3175C53.3411 34.4683 53.4358 34.7109 53.6016 34.9098C53.7673 35.1087 53.9827 35.2602 54.2479 35.3643C54.513 35.4661 54.8089 35.517 55.1357 35.517C55.4979 35.517 55.8198 35.4567 56.1016 35.3359C56.3857 35.2128 56.6082 35.0424 56.7692 34.8246C56.9325 34.6044 57.0142 34.3487 57.0142 34.0575C57.0142 33.8113 56.9503 33.6054 56.8224 33.4396C56.6946 33.2715 56.5159 33.1307 56.2862 33.017C56.0589 32.9034 55.795 32.8028 55.4943 32.7152L54.6243 32.4595C54.0537 32.2891 53.611 32.0535 53.2962 31.7528C52.9813 31.4522 52.8239 31.0687 52.8239 30.6023C52.8239 30.2116 52.928 29.8684 53.1364 29.5724C53.3471 29.2741 53.6312 29.0421 53.9886 28.8764C54.3485 28.7083 54.7521 28.6243 55.1996 28.6243C55.6518 28.6243 56.0518 28.7071 56.3999 28.8729C56.7479 29.0386 57.0237 29.267 57.2273 29.5582C57.4332 29.8471 57.5433 30.1761 57.5575 30.5455H56.9148ZM62.705 36V28.7273H63.369V32.6442H63.433L66.9841 28.7273H67.8577L64.7504 32.0902L67.8435 36H67.0338L64.3385 32.5518L63.369 33.6385V36H62.705ZM73.2253 28.7273V36H72.5612V28.7273H73.2253ZM78.6089 36V28.7273H79.2729V35.4034H82.7388V36H78.6089ZM87.6839 36V28.7273H88.3479V35.4034H91.8138V36H87.6839ZM100.708 30.5455C100.667 30.1406 100.489 29.8187 100.172 29.5795C99.8543 29.3404 99.4554 29.2209 98.9748 29.2209C98.6362 29.2209 98.3379 29.2789 98.0799 29.3949C97.8242 29.5109 97.623 29.6719 97.4762 29.8778C97.3318 30.0814 97.2596 30.3134 97.2596 30.5739C97.2596 30.7656 97.301 30.9337 97.3839 31.0781C97.4667 31.2225 97.578 31.3468 97.7177 31.451C97.8597 31.5528 98.016 31.6404 98.1864 31.7138C98.3593 31.7872 98.5333 31.8487 98.7085 31.8984L99.4755 32.1186C99.7075 32.1825 99.9395 32.2642 100.172 32.3636C100.404 32.4631 100.615 32.5885 100.807 32.7401C101.001 32.8892 101.156 33.0727 101.272 33.2905C101.391 33.5059 101.45 33.7652 101.45 34.0682C101.45 34.4564 101.349 34.8056 101.148 35.1158C100.947 35.4259 100.658 35.6721 100.282 35.8544C99.9052 36.0343 99.4542 36.1243 98.9286 36.1243C98.4338 36.1243 98.0041 36.0426 97.6396 35.8793C97.275 35.7135 96.9885 35.4851 96.7802 35.1939C96.5719 34.9027 96.4547 34.5653 96.4286 34.1818H97.1104C97.1341 34.4683 97.2288 34.7109 97.3945 34.9098C97.5603 35.1087 97.7757 35.2602 98.0408 35.3643C98.306 35.4661 98.6019 35.517 98.9286 35.517C99.2908 35.517 99.6128 35.4567 99.8945 35.3359C100.179 35.2128 100.401 35.0424 100.562 34.8246C100.725 34.6044 100.807 34.3487 100.807 34.0575C100.807 33.8113 100.743 33.6054 100.615 33.4396C100.488 33.2715 100.309 33.1307 100.079 33.017C99.8519 32.9034 99.5879 32.8028 99.2873 32.7152L98.4173 32.4595C97.8467 32.2891 97.404 32.0535 97.0891 31.7528C96.7743 31.4522 96.6168 31.0687 96.6168 30.6023C96.6168 30.2116 96.721 29.8684 96.9293 29.5724C97.14 29.2741 97.4241 29.0421 97.7816 28.8764C98.1415 28.7083 98.5451 28.6243 98.9925 28.6243C99.4447 28.6243 99.8448 28.7071 100.193 28.8729C100.541 29.0386 100.817 29.267 101.02 29.5582C101.226 29.8471 101.336 30.1761 101.35 30.5455H100.708ZM116.709 30.5455C116.669 30.1406 116.49 29.8187 116.173 29.5795C115.856 29.3404 115.457 29.2209 114.976 29.2209C114.638 29.2209 114.34 29.2789 114.081 29.3949C113.826 29.5109 113.625 29.6719 113.478 29.8778C113.333 30.0814 113.261 30.3134 113.261 30.5739C113.261 30.7656 113.303 30.9337 113.385 31.0781C113.468 31.2225 113.58 31.3468 113.719 31.451C113.861 31.5528 114.018 31.6404 114.188 31.7138C114.361 31.7872 114.535 31.8487 114.71 31.8984L115.477 32.1186C115.709 32.1825 115.941 32.2642 116.173 32.3636C116.405 32.4631 116.617 32.5885 116.809 32.7401C117.003 32.8892 117.158 33.0727 117.274 33.2905C117.392 33.5059 117.451 33.7652 117.451 34.0682C117.451 34.4564 117.351 34.8056 117.15 35.1158C116.948 35.4259 116.66 35.6721 116.283 35.8544C115.907 36.0343 115.456 36.1243 114.93 36.1243C114.435 36.1243 114.006 36.0426 113.641 35.8793C113.277 35.7135 112.99 35.4851 112.782 35.1939C112.573 34.9027 112.456 34.5653 112.43 34.1818H113.112C113.136 34.4683 113.23 34.7109 113.396 34.9098C113.562 35.1087 113.777 35.2602 114.042 35.3643C114.308 35.4661 114.603 35.517 114.93 35.517C115.292 35.517 115.614 35.4567 115.896 35.3359C116.18 35.2128 116.403 35.0424 116.564 34.8246C116.727 34.6044 116.809 34.3487 116.809 34.0575C116.809 33.8113 116.745 33.6054 116.617 33.4396C116.489 33.2715 116.31 33.1307 116.081 33.017C115.853 32.9034 115.59 32.8028 115.289 32.7152L114.419 32.4595C113.848 32.2891 113.406 32.0535 113.091 31.7528C112.776 31.4522 112.618 31.0687 112.618 30.6023C112.618 30.2116 112.723 29.8684 112.931 29.5724C113.142 29.2741 113.426 29.0421 113.783 28.8764C114.143 28.7083 114.547 28.6243 114.994 28.6243C115.446 28.6243 115.846 28.7071 116.194 28.8729C116.542 29.0386 116.818 29.267 117.022 29.5582C117.228 29.8471 117.338 30.1761 117.352 30.5455H116.709ZM122.5 36V28.7273H123.164V32.0618H127.29V28.7273H127.954V36H127.29V32.6584H123.164V36H122.5ZM139.295 32.3636C139.295 33.1212 139.16 33.7805 138.89 34.3416C138.62 34.9003 138.248 35.3336 137.775 35.6413C137.304 35.9467 136.762 36.0994 136.148 36.0994C135.535 36.0994 134.992 35.9467 134.518 35.6413C134.047 35.3336 133.677 34.9003 133.407 34.3416C133.139 33.7805 133.006 33.1212 133.006 32.3636C133.006 31.6061 133.139 30.9479 133.407 30.3892C133.677 29.8281 134.048 29.3949 134.522 29.0895C134.995 28.7817 135.538 28.6278 136.148 28.6278C136.762 28.6278 137.304 28.7817 137.775 29.0895C138.248 29.3949 138.62 29.8281 138.89 30.3892C139.16 30.9479 139.295 31.6061 139.295 32.3636ZM138.648 32.3636C138.648 31.7126 138.539 31.1551 138.322 30.6911C138.104 30.2247 137.807 29.8684 137.43 29.6222C137.054 29.3759 136.627 29.2528 136.148 29.2528C135.673 29.2528 135.246 29.3759 134.87 29.6222C134.494 29.8684 134.195 30.2235 133.975 30.6875C133.757 31.1515 133.648 31.7102 133.648 32.3636C133.648 33.0147 133.757 33.5722 133.975 34.0362C134.193 34.5002 134.49 34.8565 134.866 35.1051C135.243 35.3513 135.67 35.4744 136.148 35.4744C136.627 35.4744 137.054 35.3513 137.43 35.1051C137.809 34.8589 138.107 34.5038 138.325 34.0398C138.543 33.5734 138.651 33.0147 138.648 32.3636ZM145.615 36L143.623 28.7273H144.297L145.945 34.9808H146.002L147.65 28.7273H148.417L150.064 34.9808H150.121L151.769 28.7273H152.447L150.455 36H149.745L148.058 29.8317H148.012L146.325 36H145.615ZM162.452 31H161.784C161.734 30.7514 161.644 30.5218 161.514 30.3111C161.386 30.098 161.225 29.9122 161.031 29.7536C160.837 29.5949 160.617 29.4718 160.371 29.3842C160.125 29.2966 159.858 29.2528 159.572 29.2528C159.113 29.2528 158.693 29.3724 158.315 29.6115C157.938 29.8506 157.636 30.2022 157.409 30.6662C157.184 31.1278 157.072 31.6937 157.072 32.3636C157.072 33.0384 157.184 33.6065 157.409 34.0682C157.636 34.5298 157.938 34.8802 158.315 35.1193C158.693 35.3561 159.113 35.4744 159.572 35.4744C159.858 35.4744 160.125 35.4306 160.371 35.343C160.617 35.2554 160.837 35.1335 161.031 34.9773C161.225 34.8187 161.386 34.6328 161.514 34.4197C161.644 34.2067 161.734 33.9759 161.784 33.7273H162.452C162.393 34.0611 162.281 34.3724 162.118 34.6612C161.957 34.9477 161.751 35.1986 161.5 35.4141C161.251 35.6295 160.965 35.7976 160.641 35.9183C160.316 36.0391 159.96 36.0994 159.572 36.0994C158.961 36.0994 158.419 35.9467 157.945 35.6413C157.472 35.3336 157.1 34.9003 156.83 34.3416C156.563 33.7829 156.429 33.1236 156.429 32.3636C156.429 31.6037 156.563 30.9444 156.83 30.3857C157.1 29.8269 157.472 29.3949 157.945 29.0895C158.419 28.7817 158.961 28.6278 159.572 28.6278C159.96 28.6278 160.316 28.6882 160.641 28.8089C160.965 28.9273 161.251 29.0954 161.5 29.3132C161.751 29.5286 161.957 29.7796 162.118 30.0661C162.281 30.3525 162.393 30.6638 162.452 31ZM167.472 36H166.776L169.422 28.7273H170.132L172.778 36H172.082L169.802 29.5902H169.752L167.472 36ZM167.973 33.2124H171.581V33.8089H167.973V33.2124ZM181.423 30.5455C181.383 30.1406 181.204 29.8187 180.887 29.5795C180.57 29.3404 180.171 29.2209 179.69 29.2209C179.351 29.2209 179.053 29.2789 178.795 29.3949C178.539 29.5109 178.338 29.6719 178.191 29.8778C178.047 30.0814 177.975 30.3134 177.975 30.5739C177.975 30.7656 178.016 30.9337 178.099 31.0781C178.182 31.2225 178.293 31.3468 178.433 31.451C178.575 31.5528 178.731 31.6404 178.902 31.7138C179.074 31.7872 179.248 31.8487 179.424 31.8984L180.191 32.1186C180.423 32.1825 180.655 32.2642 180.887 32.3636C181.119 32.4631 181.331 32.5885 181.522 32.7401C181.717 32.8892 181.872 33.0727 181.988 33.2905C182.106 33.5059 182.165 33.7652 182.165 34.0682C182.165 34.4564 182.065 34.8056 181.863 35.1158C181.662 35.4259 181.373 35.6721 180.997 35.8544C180.62 36.0343 180.169 36.1243 179.644 36.1243C179.149 36.1243 178.719 36.0426 178.355 35.8793C177.99 35.7135 177.704 35.4851 177.495 35.1939C177.287 34.9027 177.17 34.5653 177.144 34.1818H177.826C177.849 34.4683 177.944 34.7109 178.11 34.9098C178.275 35.1087 178.491 35.2602 178.756 35.3643C179.021 35.4661 179.317 35.517 179.644 35.517C180.006 35.517 180.328 35.4567 180.61 35.3359C180.894 35.2128 181.116 35.0424 181.277 34.8246C181.441 34.6044 181.522 34.3487 181.522 34.0575C181.522 33.8113 181.458 33.6054 181.331 33.4396C181.203 33.2715 181.024 33.1307 180.794 33.017C180.567 32.9034 180.303 32.8028 180.003 32.7152L179.132 32.4595C178.562 32.2891 178.119 32.0535 177.804 31.7528C177.489 31.4522 177.332 31.0687 177.332 30.6023C177.332 30.2116 177.436 29.8684 177.645 29.5724C177.855 29.2741 178.139 29.0421 178.497 28.8764C178.857 28.7083 179.26 28.6243 179.708 28.6243C180.16 28.6243 180.56 28.7071 180.908 28.8729C181.256 29.0386 181.532 29.267 181.735 29.5582C181.941 29.8471 182.052 30.1761 182.066 30.5455H181.423ZM187.213 36V28.7273H191.432V29.3239H187.877V32.0618H191.208V32.6584H187.877V35.4034H191.503V36H187.213Z" fill="#232121"/>
<path d="M45 34L23 23L1 34L23 45L45 34Z" fill="#191717" stroke="#434343" stroke-miterlimit="1"/>
<path d="M45 34L23 23V1L45 12V34Z" fill="#201E1E" stroke="#434343" stroke-miterlimit="1"/>
<path d="M23 23L1 34V12L23 1V23Z" fill="#232121" stroke="#434343" stroke-miterlimit="1"/>
<path d="M23 45L1 34V12L23 23V45Z" fill="#1C1A1A" stroke="#434343" stroke-miterlimit="1"/>
<path d="M23 45L45 34V12L23 23V45Z" fill="#151414" stroke="#434343" stroke-miterlimit="1"/>
<path d="M45 12L23 1L1 12L23 23L45 12Z" fill="#121111" stroke="#434343" stroke-miterlimit="1"/>
</svg>
